<svg xmlns="http://www.w3.org/2000/svg" version="1.1" xmlns:xlink="http://www.w3.org/1999/xlink" xmlns:svgjs="http://svgjs.dev/svgjs" width="1000" height="623" viewBox="0 0 1000 623"><g transform="matrix(1,0,0,1,-0.6060606060606233,0.2522267206477409)"><svg viewBox="0 0 396 247" data-background-color="#ffffff" preserveAspectRatio="xMidYMid meet" height="623" width="1000" xmlns="http://www.w3.org/2000/svg" xmlns:xlink="http://www.w3.org/1999/xlink"><g id="tight-bounds" transform="matrix(1,0,0,1,0.2400000000000091,-0.09999999999999432)"><svg viewBox="0 0 395.52 247.2" height="247.2" width="395.52"><g><svg></svg></g><g><svg viewBox="0 0 395.52 247.2" height="247.2" width="395.52"><g transform="matrix(1,0,0,1,84.11659951100245,47.215199999999996)"><svg viewBox="0 0 227.28680097799509 152.7696" height="152.7696" width="227.28680097799509"><g><svg viewBox="0 0 227.28680097799509 152.7696" height="152.7696" width="227.28680097799509"><g><svg viewBox="0 0 227.28680097799509 152.7696" height="152.7696" width="227.28680097799509"><g><svg viewBox="0 0 227.28680097799509 152.7696" height="152.7696" width="227.28680097799509"><g id="textblocktransform"><svg viewBox="0 0 227.28680097799509 152.7696" height="152.7696" width="227.28680097799509" id="textblock"><g><svg viewBox="0 0 227.28680097799509 152.7696" height="152.7696" width="227.28680097799509"><g transform="matrix(1,0,0,1,0,0)"><svg width="227.28680097799509" viewBox="1.2 -40.5 60.849999999999994 40.9" height="152.7696" data-palette-color="#6b7280"><path d="M18.6-15.15L18.6-2Q18.6 0.4 15.65 0.4L15.65 0.4Q12.7 0.4 12.7-2L12.7-2 12.7-15.3 1.5-36.6Q1.2-37.25 1.2-37.95L1.2-37.95Q1.2-39.4 2.9-40.1L2.9-40.1 2.85-40.1Q3.95-40.5 4.6-40.5L4.6-40.5Q5.9-40.5 6.6-39.2L6.6-39.2 15.7-22.1Q16.7-24 17.85-26.18 19-28.35 20.18-30.6 21.35-32.85 22.5-35.05 23.65-37.25 24.7-39.2L24.7-39.2Q25.1-39.8 25.58-40.15 26.05-40.5 26.75-40.5L26.75-40.5Q27.45-40.5 28.4-40.1L28.4-40.1 28.35-40.1Q30.1-39.35 30.1-37.9L30.1-37.9Q30.1-37.6 30.05-37.27 30-36.95 29.8-36.6L29.8-36.6Q29.35-35.7 28.68-34.4 28-33.1 26.78-30.78 25.55-28.45 23.6-24.73 21.65-21 18.6-15.15L18.6-15.15ZM62.05-11.3L62.05-8Q62.05-3.95 59.35-1.95L59.35-1.95Q58.05-1 56.67-0.48 55.3 0.05 54 0.05L54 0.05 43.1 0.05Q41.8 0.05 40.42-0.48 39.05-1 37.75-1.95L37.75-1.95Q36.45-2.95 35.75-4.42 35.05-5.9 35.05-8L35.05-8 35.05-31.75Q35.05-33.75 35.75-35.27 36.45-36.8 37.75-37.75L37.75-37.75 37.7-37.75Q39-38.6 40.4-39.15 41.8-39.7 43.1-39.7L43.1-39.7 54-39.7Q55.3-39.7 56.7-39.15 58.1-38.6 59.4-37.75L59.4-37.75 59.35-37.75Q60.65-36.8 61.35-35.27 62.05-33.75 62.05-31.75L62.05-31.75 62.05-28.3Q62.05-25.9 59.05-25.9L59.05-25.9Q56.1-25.9 56.1-28.3L56.1-28.3 56.1-31.3Q56.1-32.55 55.35-33.6 54.6-34.65 52.75-34.65L52.75-34.65 44.35-34.65Q42.5-34.65 41.75-33.6 41-32.55 41-31.3L41-31.3 41-8.4Q41-7.1 41.75-6.05 42.5-5 44.35-5L44.35-5 52.75-5Q54.6-5 55.35-6.05 56.1-7.1 56.1-8.4L56.1-8.4 56.1-11.3Q56.1-13.65 59.05-13.65L59.05-13.65Q62.05-13.65 62.05-11.3L62.05-11.3Z" opacity="1" transform="matrix(1,0,0,1,0,0)" fill="#6b7280" class="undefined-text-0" data-fill-palette-color="primary" id="text-0"></path></svg></g></svg></g></svg></g></svg></g></svg></g></svg></g></svg></g><path d="M129.102 41.215L129.102 0 376.302 0 376.302 247.2 129.102 247.2 129.102 205.985 142.879 205.985 142.879 233.423 362.525 233.423 362.525 13.777 142.879 13.777 142.879 41.215Z" fill="#6b7280" stroke="transparent" data-fill-palette-color="primary"></path></svg></g><defs></defs></svg><rect width="395.52" height="247.2" fill="none" stroke="none" visibility="hidden"></rect></g></svg></g></svg>